<svg width="222.817017" height="45.470215" viewBox="0 0 222.817 45.4702" fill="none" xmlns="http://www.w3.org/2000/svg" xmlns:xlink="http://www.w3.org/1999/xlink">
	<desc>
			Created with Pixso.
	</desc>
	<defs/>
	<path id="Vector" d="M16.66 35.3223C13.1974 35.3223 10.2247 34.5908 7.742 33.127C5.25934 31.6309 3.34834 29.5654 2.009 26.9307C0.669662 24.2637 0 21.1904 0 17.71C0 14.23 0.669662 11.1562 2.009 8.48926C3.34834 5.82227 5.25934 3.74023 7.742 2.24414C10.2247 0.748047 13.1974 0 16.66 0C20.776 0 24.1406 1.02441 26.754 3.07373C29.4 5.09033 31.0496 7.93604 31.703 11.6113L24.794 11.6113C24.3694 9.75781 23.4546 8.31006 22.05 7.26953C20.678 6.19629 18.8486 5.65918 16.562 5.65918C13.3934 5.65918 10.9107 6.73291 9.114 8.87939C7.31734 11.0259 6.419 13.9697 6.419 17.71C6.419 21.4502 7.31734 24.394 9.114 26.5405C10.9107 28.6548 13.3934 29.7119 16.562 29.7119C18.8486 29.7119 20.678 29.2241 22.05 28.248C23.4546 27.2397 24.3694 25.8574 24.794 24.1011L31.703 24.1011C31.0496 27.6138 29.4 30.3623 26.754 32.3462C24.1406 34.3306 20.776 35.3223 16.66 35.3223ZM44.507 35.3223C42.4162 35.3223 40.7012 34.9971 39.362 34.3467C38.0226 33.6636 37.0262 32.769 36.373 31.6636C35.7196 30.5576 35.393 29.3379 35.393 28.0044C35.393 25.7598 36.275 23.9385 38.039 22.54C39.803 21.1416 42.449 20.4419 45.977 20.4419L52.151 20.4419L52.151 19.8564C52.151 18.1978 51.6772 16.978 50.73 16.1978C49.7826 15.417 48.6066 15.0269 47.202 15.0269C45.928 15.0269 44.8172 15.3359 43.87 15.9536C42.9226 16.5391 42.3346 17.4175 42.106 18.5884L35.981 18.5884C36.1442 16.832 36.7322 15.3032 37.745 14.002C38.7902 12.7012 40.1296 11.709 41.763 11.0259C43.3962 10.3105 45.2256 9.95264 47.251 9.95264C50.7136 9.95264 53.4412 10.8145 55.434 12.5386C57.4266 14.2622 58.423 16.7017 58.423 19.8564L58.423 34.7368L53.082 34.7368L52.494 30.834C51.7752 32.1348 50.7626 33.208 49.456 34.0537C48.182 34.8994 46.5322 35.3223 44.507 35.3223ZM45.928 30.4438C47.7246 30.4438 49.113 29.8584 50.093 28.6875C51.1056 27.5166 51.7426 26.0688 52.004 24.3452L46.663 24.3452C44.997 24.3452 43.8046 24.6543 43.086 25.272C42.3672 25.8574 42.008 26.5894 42.008 27.4678C42.008 28.4106 42.3672 29.1426 43.086 29.6631C43.8046 30.1836 44.752 30.4438 45.928 30.4438ZM73.4733 35.3223C71.3173 35.3223 69.4225 34.981 67.7893 34.2979C66.1559 33.5825 64.8493 32.6064 63.8693 31.3706C62.8893 30.1348 62.3013 28.7036 62.1053 27.0771L68.4263 27.0771C68.6223 28.0205 69.1449 28.8335 69.9943 29.5166C70.8763 30.167 72.0033 30.4922 73.3753 30.4922C74.7473 30.4922 75.7435 30.2158 76.3643 29.6631C77.0175 29.1099 77.3443 28.4756 77.3443 27.7603C77.3443 26.7192 76.8869 26.02 75.9723 25.6626C75.0575 25.272 73.7835 24.8979 72.1503 24.5405C71.1049 24.3125 70.0433 24.0361 68.9653 23.7109C67.8873 23.3857 66.8909 22.979 65.9762 22.4912C65.0943 21.9707 64.3755 21.3203 63.8203 20.5396C63.2649 19.7266 62.9873 18.7344 62.9873 17.5635C62.9873 15.417 63.8365 13.6118 65.5353 12.1479C67.2665 10.6846 69.6839 9.95264 72.7873 9.95264C75.6619 9.95264 77.9485 10.6196 79.6473 11.9531C81.3785 13.2866 82.4075 15.124 82.7343 17.4658L76.8053 17.4658C76.4459 15.6772 75.0903 14.7827 72.7383 14.7827C71.5622 14.7827 70.6475 15.0103 69.9943 15.4658C69.3735 15.9214 69.0633 16.4902 69.0633 17.1733C69.0633 17.8887 69.5369 18.458 70.4842 18.8809C71.4315 19.3037 72.6893 19.6938 74.2573 20.0518C75.9559 20.4419 77.5075 20.8813 78.9123 21.3691C80.3495 21.8247 81.4929 22.5239 82.3423 23.4668C83.1915 24.3774 83.6163 25.6948 83.6163 27.4189C83.6489 28.915 83.2569 30.2646 82.4403 31.4683C81.6235 32.6714 80.4475 33.6147 78.9123 34.2979C77.3769 34.981 75.5639 35.3223 73.4733 35.3223ZM98.2558 34.7368C95.7078 34.7368 93.666 34.1191 92.1308 32.8828C90.5954 31.647 89.8278 29.4517 89.8278 26.2969L89.8278 15.7583L85.6628 15.7583L85.6628 10.5381L89.8278 10.5381L90.5628 4.04932L96.0998 4.04932L96.0998 10.5381L102.666 10.5381L102.666 15.7583L96.0998 15.7583L96.0998 26.3452C96.0998 27.5166 96.3448 28.3296 96.8348 28.7847C97.3574 29.2075 98.2394 29.4189 99.4808 29.4189L102.519 29.4189L102.519 34.7368L98.2558 34.7368ZM115.45 35.3223C113.359 35.3223 111.644 34.9971 110.305 34.3467C108.965 33.6636 107.969 32.769 107.316 31.6636C106.662 30.5576 106.336 29.3379 106.336 28.0044C106.336 25.7598 107.218 23.9385 108.982 22.54C110.746 21.1416 113.392 20.4419 116.92 20.4419L123.094 20.4419L123.094 19.8564C123.094 18.1978 122.62 16.978 121.673 16.1978C120.725 15.417 119.549 15.0269 118.145 15.0269C116.871 15.0269 115.76 15.3359 114.813 15.9536C113.865 16.5391 113.277 17.4175 113.049 18.5884L106.924 18.5884C107.087 16.832 107.675 15.3032 108.688 14.002C109.733 12.7012 111.072 11.709 112.706 11.0259C114.339 10.3105 116.168 9.95264 118.194 9.95264C121.656 9.95264 124.384 10.8145 126.377 12.5386C128.369 14.2622 129.366 16.7017 129.366 19.8564L129.366 34.7368L124.025 34.7368L123.437 30.834C122.718 32.1348 121.705 33.208 120.399 34.0537C119.125 34.8994 117.475 35.3223 115.45 35.3223ZM116.871 30.4438C118.667 30.4438 120.056 29.8584 121.036 28.6875C122.048 27.5166 122.685 26.0688 122.947 24.3452L117.606 24.3452C115.94 24.3452 114.747 24.6543 114.029 25.272C113.31 25.8574 112.951 26.5894 112.951 27.4678C112.951 28.4106 113.31 29.1426 114.029 29.6631C114.747 30.1836 115.695 30.4438 116.871 30.4438ZM138.885 34.7368L131.78 10.5381L138.003 10.5381L142.216 27.9556L147.116 10.5381L154.074 10.5381L158.974 27.9556L163.237 10.5381L169.46 10.5381L162.306 34.7368L155.789 34.7368L150.595 16.6367L145.401 34.7368L138.885 34.7368ZM179.572 35.3223C177.482 35.3223 175.767 34.9971 174.427 34.3467C173.089 33.6636 172.092 32.769 171.438 31.6636C170.786 30.5576 170.458 29.3379 170.458 28.0044C170.458 25.7598 171.34 23.9385 173.104 22.54C174.868 21.1416 177.514 20.4419 181.042 20.4419L187.216 20.4419L187.216 19.8564C187.216 18.1978 186.743 16.978 185.795 16.1978C184.849 15.417 183.673 15.0269 182.267 15.0269C180.993 15.0269 179.883 15.3359 178.935 15.9536C177.989 16.5391 177.401 17.4175 177.171 18.5884L171.046 18.5884C171.21 16.832 171.798 15.3032 172.81 14.002C173.856 12.7012 175.196 11.709 176.828 11.0259C178.462 10.3105 180.292 9.95264 182.316 9.95264C185.78 9.95264 188.507 10.8145 190.499 12.5386C192.493 14.2622 193.488 16.7017 193.488 19.8564L193.488 34.7368L188.147 34.7368L187.559 30.834C186.841 32.1348 185.829 33.208 184.521 34.0537C183.247 34.8994 181.598 35.3223 179.572 35.3223ZM180.993 30.4438C182.791 30.4438 184.178 29.8584 185.158 28.6875C186.172 27.5166 186.809 26.0688 187.069 24.3452L181.728 24.3452C180.062 24.3452 178.871 24.6543 178.151 25.272C177.433 25.8574 177.073 26.5894 177.073 27.4678C177.073 28.4106 177.433 29.1426 178.151 29.6631C178.871 30.1836 179.817 30.4438 180.993 30.4438ZM200.718 45.4702L206.353 33.127L204.883 33.127L195.426 10.5381L202.237 10.5381L209.048 27.5649L216.153 10.5381L222.817 10.5381L207.382 45.4702L200.718 45.4702Z" fill="#FFFFFF" fill-opacity="1.000000" fill-rule="nonzero"/>
</svg>
